HIERARCHY
ROOT Hips
{
	OFFSET	0.00	0.00	0.00
	CHANNELS 6 Xposition Yposition Zposition Zrotation Xrotation Yrotation
	JOINT LeftUpLeg
	{
		OFFSET	 0.126116	-0.014019	-0.065224
		CHANNELS 3 Zrotation Xrotation Yrotation
		JOINT LeftLeg
		{
			OFFSET	 0.000000	 0.000000	 0.569914
			CHANNELS 3 Zrotation Xrotation Yrotation
			JOINT LeftFoot
			{
				OFFSET	 0.000000	 0.000000	 0.544423
				CHANNELS 3 Zrotation Xrotation Yrotation
				JOINT LeftToeBase
				{
					OFFSET	 0.000000	 0.000000	 0.207117
					CHANNELS 3 Zrotation Xrotation Yrotation
					End Site
					{
						OFFSET	 0.000000	 0.000000	 0.207117
					}
				}
			}
		}
	}
	JOINT RightUpLeg
	{
		OFFSET	-0.124023	-0.008373	-0.065224
		CHANNELS 3 Zrotation Xrotation Yrotation
		JOINT RightLeg
		{
			OFFSET	 0.000000	 0.000000	 0.570047
			CHANNELS 3 Zrotation Xrotation Yrotation
			JOINT RightFoot
			{
				OFFSET	 0.000000	 0.000000	 0.544354
				CHANNELS 3 Zrotation Xrotation Yrotation
				JOINT RightToeBase
				{
					OFFSET	 0.000000	 0.000000	 0.207540
					CHANNELS 3 Zrotation Xrotation Yrotation
					End Site
					{
						OFFSET	 0.000000	 0.000000	 0.207540
					}
				}
			}
		}
	}
	JOINT Spine
	{
		OFFSET	 0.000184	-0.007763	 0.117403
		CHANNELS 3 Zrotation Xrotation Yrotation
		JOINT Spine1
		{
			OFFSET	 0.000000	 0.000000	 0.137269
			CHANNELS 3 Zrotation Xrotation Yrotation
			JOINT Spine2
			{
				OFFSET	 0.000000	 0.000000	 0.156879
				CHANNELS 3 Zrotation Xrotation Yrotation
				JOINT LeftShoulder
				{
					OFFSET	 0.080501	-0.002496	 0.160144
					CHANNELS 3 Zrotation Xrotation Yrotation
					JOINT LeftArm
					{
						OFFSET	 0.000000	 0.000000	 0.164363
						CHANNELS 3 Zrotation Xrotation Yrotation
						JOINT LeftForeArm
						{
							OFFSET	 0.000000	 0.000000	 0.364576
							CHANNELS 3 Zrotation Xrotation Yrotation
							JOINT LeftHand
							{
								OFFSET	 0.000000	 0.000000	 0.360812
								CHANNELS 3 Zrotation Xrotation Yrotation
								JOINT LeftHandIndex1
								{
									OFFSET	 0.000000	 0.000000	 0.086006
									CHANNELS 3 Zrotation Xrotation Yrotation
									JOINT LeftHandIndex2
									{
										OFFSET	 0.000000	 0.000000	 0.047237
										CHANNELS 3 Zrotation Xrotation Yrotation
										JOINT LeftHandIndex3
										{
											OFFSET	-0.004284	-0.000551	 0.038165
											CHANNELS 3 Zrotation Xrotation Yrotation
											End Site
											{
												OFFSET	-0.004284	-0.000551	 0.038165
											}
										}
									}
								}
							}
						}
					}
				}
				JOINT Neck
				{
					OFFSET	 0.000000	 0.000000	 0.176489
					CHANNELS 3 Zrotation Xrotation Yrotation
					JOINT Head
					{
						OFFSET	 0.000000	-0.001747	 0.077940
						CHANNELS 3 Zrotation Xrotation Yrotation
						End Site
						{
							OFFSET	 0.000000	-0.001747	 0.077940
						}
					}
				}
				JOINT RightShoulder
				{
					OFFSET	-0.080363	 0.000306	 0.159706
					CHANNELS 3 Zrotation Xrotation Yrotation
					JOINT RightArm
					{
						OFFSET	 0.000000	 0.000000	 0.164196
						CHANNELS 3 Zrotation Xrotation Yrotation
						JOINT RightForeArm
						{
							OFFSET	 0.000000	 0.000000	 0.365611
							CHANNELS 3 Zrotation Xrotation Yrotation
							JOINT RightHand
							{
								OFFSET	 0.000000	 0.000000	 0.360648
								CHANNELS 3 Zrotation Xrotation Yrotation
								JOINT RightHandIndex1
								{
									OFFSET	 0.000000	 0.000000	 0.069977
									CHANNELS 3 Zrotation Xrotation Yrotation
									JOINT RightHandIndex2
									{
										OFFSET	 0.000000	 0.000000	 0.052305
										CHANNELS 3 Zrotation Xrotation Yrotation
										JOINT RightHandIndex3
										{
											OFFSET	 0.009002	-0.000782	 0.042196
											CHANNELS 3 Zrotation Xrotation Yrotation
											End Site
											{
												OFFSET	 0.009002	-0.000782	 0.042196
											}
										}
									}
								}
							}
						}
					}
				}
			}
		}
	}
}
MOTION
Frames:    5
Frame Time: 0.03333334
-0.463033	-0.032839	 1.275405	 179.383500	-2.690083	 5.681573	 22.962080	-5.493471	 171.085300	-8.533045	-19.300480	-3.028602	-4.161759	 74.746890	-5.554576	-2.385833	 28.452760	 0.000004	 14.750600	 2.813708	 175.236600	 2.840236	-5.496161	 0.126217	 8.861242	 65.365180	 4.715100	 2.384659	 28.388700	-0.000001	-10.852740	 7.780364	-7.719749	-3.977364	 6.418830	-14.617740	 16.208240	-1.446980	 27.376480	-91.776260	 78.527400	-179.999900	-81.438710	 7.691340	-14.071990	 0.815955	-0.962123	-19.049710	-0.696635	-13.010930	-2.026820	-4.130319	 21.525730	 0.991547	-5.167930	 0.731704	 3.519349	-1.378229	 35.397820	-2.634230	-2.922820	 0.861681	 1.842708	-9.691058	-29.110330	-12.241250	 89.782100	 78.203870	 180.000000	-30.214790	-10.669540	-11.635540	-13.914120	-8.941992	 48.491950	 15.220970	 7.717417	 135.209200	 5.716227	 19.173190	-3.685159	 5.027444	 0.246877	-9.377972	-2.350882	 35.473990	 5.254307
-0.463555	-0.033085	 1.274586	 179.555000	-2.633156	 6.142126	 24.513790	-7.439862	 170.522200	-9.773627	-22.603360	-4.009360	-3.941223	 76.421770	-4.920892	-2.385833	 28.452760	 0.000004	 13.970190	 0.037105	 175.352400	 3.456597	-11.152330	 0.374200	 7.704702	 67.786580	 5.323842	 2.384659	 28.388700	-0.000001	-11.244170	 7.725639	-8.548896	-4.373870	 7.381979	-14.455580	 16.535010	-2.756589	 27.913700	-91.776150	 78.527380	 180.000000	-84.092520	 11.775800	 2.742709	-0.523829	-1.797098	-51.084060	-1.383009	-12.349710	-2.245904	-4.130319	 21.525730	 0.991547	-5.167930	 0.731704	 3.519349	-1.378229	 35.397820	-2.634230	-3.172912	 1.234244	 2.192327	-10.364300	-30.409560	-13.695440	 89.782160	 78.203870	 179.999900	-29.046470	-11.485050	-15.893100	-11.047550	-10.872640	 65.342300	 14.633410	 9.124873	 131.873600	 5.716227	 19.173190	-3.685159	 5.027444	 0.246877	-9.377972	-2.350882	 35.473990	 5.254307
-0.464661	-0.034095	 1.270661	-179.864700	-1.806877	 6.037423	 22.012810	-11.446640	 171.058200	-10.550150	-31.872500	-5.920772	-18.117770	 82.105930	 9.335893	-2.385833	 28.452760	 0.000004	 12.265840	-6.212931	 177.638300	 3.797326	-23.278010	 0.899333	 16.338150	 73.757160	-4.164036	 2.384659	 28.388700	-0.000001	-13.780870	 6.662772	-8.757560	-5.654057	 8.734323	-14.347130	 16.795760	-3.248728	 28.295330	-91.776190	 78.527380	-180.000000	-68.462660	 23.020920	 28.162170	-2.535880	-1.927988	-106.617600	-2.014770	-12.600950	-2.432573	-4.130319	 21.525730	 0.991547	-5.167930	 0.731704	 3.519349	-1.378229	 35.397820	-2.634230	-3.101343	 0.953215	 2.198961	-10.244450	-29.749270	-13.929470	 89.782100	 78.203900	 180.000000	-7.496100	-0.078470	-12.458730	-3.337572	-9.898109	 105.939200	 10.523300	 28.434590	 84.941170	 5.716227	 19.173190	-3.685159	 5.027444	 0.246877	-9.377972	-2.350882	 35.473990	 5.254307
-0.467437	-0.036538	 1.262388	-178.540100	-0.561736	 5.493763	 18.398780	-16.260250	 172.335500	-12.923730	-44.690290	-9.572772	-111.975400	 85.079690	 103.557600	-2.385833	 28.452760	 0.000004	 10.427320	-13.019280	-177.415700	 4.787962	-36.459150	 1.941767	 38.987920	 78.166020	-28.485100	 2.384659	 28.388700	-0.000001	-19.054710	 4.890286	-8.459129	-7.916383	 10.573030	-13.633250	 16.448660	-2.738984	 27.634690	-91.776140	 78.527400	 180.000000	 32.627590	 51.624180	-53.378530	-2.285402	-0.851759	-112.697700	-3.733013	-12.341250	-2.806355	-4.130319	 21.525730	 0.991547	-5.167930	 0.731704	 3.519349	-1.378229	 35.397820	-2.634230	-2.965754	-0.620533	-0.017301	-9.474420	-27.414330	-9.034338	 89.782100	 78.203870	 180.000000	-41.895970	 45.271200	 65.643360	-4.476146	-8.382504	 101.950600	 0.416089	 40.505020	 13.722500	 5.716227	 19.173190	-3.685159	 5.027444	 0.246877	-9.377972	-2.350882	 35.473990	 5.254307
-0.476943	-0.039559	 1.259866	-177.380700	-0.219164	 5.413985	 15.086660	-16.891130	 173.297600	-13.070920	-47.491700	-10.136440	-127.938800	 83.087580	 119.343900	-2.385833	 28.452760	 0.000004	 7.510376	-14.680910	-175.354500	 5.542338	-39.191560	 2.542604	 38.829350	 76.638850	-29.378480	 2.384659	 28.388700	-0.000001	-22.322090	 3.925191	-9.043597	-8.758902	 12.340420	-12.168550	 16.802010	-4.480449	 27.908990	-91.776200	 78.527350	-180.000000	 47.879770	 46.757120	-78.189150	-1.886228	 0.639112	-91.190010	-6.084179	-11.635370	-3.252330	-4.130319	 21.525730	 0.991547	-5.167930	 0.731704	 3.519349	-1.378229	 35.397820	-2.634230	-3.944870	 2.027561	 2.235698	-10.891960	-29.818030	-14.095400	 89.782060	 78.203820	-180.000000	-63.220420	 38.311600	 102.001100	-8.486902	-6.486983	 71.979550	-12.301860	 27.753290	 17.103690	 5.716227	 19.173190	-3.685159	 5.027444	 0.246877	-9.377972	-2.350882	 35.473990	 5.254307
